<svg width="65" height="65" viewBox="0 0 65 65" fill="none" xmlns="http://www.w3.org/2000/svg">
<g clip-path="url(#clip0_6_64)">
<path d="M65 32.5C64.9875 38.9127 63.0708 45.1779 59.492 50.5038C55.9133 55.8297 50.8332 59.9775 44.8935 62.4229C38.9538 64.8683 32.4211 65.5017 26.1209 64.243C19.8207 62.9843 14.0356 59.89 9.49675 55.3511C4.95786 50.8122 1.8688 45.0324 0.619889 38.742C-0.629021 32.4515 0.0182647 25.9328 2.47996 20.0094C4.94165 14.086 9.10728 9.02371 14.4505 5.46227C19.7937 1.90083 26.0748 1.21075e-05 32.5 0C36.7721 0.00406011 41.0016 0.847927 44.9469 2.48342C48.8923 4.11891 52.4763 6.51399 55.4942 9.53191C58.5121 12.5498 60.9049 16.1315 62.5359 20.0724C64.1669 24.0132 65.0042 28.2362 65 32.5Z" fill="#F5F5F5"/>
<path d="M27.2775 1.14913C25.5894 1.16895 23.9064 1.33907 22.2485 1.65747C16.552 3.533 11.4854 6.94296 7.60805 11.511C3.73068 16.079 1.19329 21.6274 0.275947 27.5438C-0.6414 33.4603 0.0969696 39.5146 2.40956 45.0387C4.72215 50.5627 8.51902 55.3417 13.3811 58.848C18.2432 62.3543 23.9814 64.4516 29.9624 64.9085C35.9434 65.3654 41.9346 64.1641 47.2747 61.4372C52.6148 58.7102 57.0962 54.5637 60.2242 49.4553C63.3521 44.3468 65.0051 38.4751 65.0006 32.4883C64.9941 29.6084 64.608 26.7419 63.8521 23.9626C61.3283 24.471 58.4548 24.5194 56.2169 22.2748C51.2025 17.2515 43.6006 1.08901 27.2781 1.14737L27.2775 1.14913Z" fill="#C6E2FF"/>
<path d="M21.3369 6.37377C16.8096 6.43085 12.4015 7.82926 8.67206 10.3915C5.05814 14.2634 2.44732 18.9583 1.0669 24.0675C-0.31352 29.1766 -0.421679 34.5451 0.751838 39.7055C1.92535 44.8659 4.34497 49.6618 7.80002 53.6756C11.2551 57.6894 15.6408 60.7994 20.5754 62.7349C25.5099 64.6703 30.8437 65.3726 36.1124 64.7804C41.381 64.1883 46.4248 62.3198 50.8045 59.3375C55.1842 56.3552 58.7671 52.3496 61.2412 47.6694C63.7154 42.9893 65.0058 37.7764 65 32.4848C65 32.2286 64.9854 31.9764 64.9854 31.7354C60.8482 35.1304 53.6293 34.9705 49.4307 30.6819C41.6206 22.4755 37.3261 9.84987 24.9156 6.74088C23.7401 6.49239 22.5414 6.36933 21.3398 6.37377H21.3369Z" fill="#98C3FF"/>
<path d="M13.925 18.9359C6.45346 18.9359 1.35666 23.4771 0.0660878 30.5706C0.033341 31.2091 9.49408e-06 31.847 9.49408e-06 32.4849C-0.0166674 40.4782 2.92467 48.1962 8.25966 54.1578C13.5946 60.1195 20.9475 63.905 28.9073 64.788C36.8672 65.6709 44.8734 63.5892 51.3898 58.9421C57.9061 54.295 62.4736 47.41 64.2158 39.6081C59.4874 47.6406 49.4435 49.8741 39.7639 41.6823C28.1856 30.6038 27.7237 19.4297 13.925 18.9359Z" fill="#4F8EF5"/>
<path d="M10.0147 35.3201C5.79911 35.6119 2.63612 39.2415 2.79576 45.6503C5.05784 50.7865 8.61813 55.248 13.1277 58.5975C17.6373 61.9471 22.9415 64.0698 28.5205 64.7577C34.0994 65.4455 39.7617 64.6749 44.9525 62.5214C50.1432 60.3679 54.6844 56.9053 58.1308 52.473C52.3171 57.2219 40.485 59.8372 29.4481 51.0372C21.3369 43.5317 18.5084 35.1322 10.0141 35.3213L10.0147 35.3201Z" fill="#2D65DC"/>
</g>
<defs>
<clipPath id="clip0_6_64">
<rect width="65" height="65" fill="white"/>
</clipPath>
</defs>
</svg>
